<?xml version="1.0" encoding="utf-8"?>
<!-- Generator: Adobe Illustrator 21.1.0, SVG Export Plug-In . SVG Version: 6.00 Build 0)  -->
<svg version="1.1" id="Layer_1" xmlns="http://www.w3.org/2000/svg" xmlns:xlink="http://www.w3.org/1999/xlink" x="0px" y="0px"
	 viewBox="0 0 262 300" style="enable-background:new 0 0 262 300;" xml:space="preserve">
<style type="text/css">
	.st0{fill:#FFFFFF;}
</style>
<g>
	<path class="st0" d="M6.3,299.4c-3.5,0-6.3-2.8-6.3-6.3v-37.4c0-3.4,2.8-6.1,6.3-6.1h249.4c3.5,0,6.3,2.8,6.3,6.1v37.4
		c0,3.5-2.8,6.3-6.3,6.3H6.3z M135.5,222.8c-1.5,1-2.8,1.8-4.5,1.8s-3.1-0.7-4.5-1.8L1.8,98.1c-1.8-1.8-2-4.5-1.5-7
		c1-2.3,3.5-3.8,6-3.8h68.6v-81c0-3.5,2.8-6.3,6.3-6.3h99.7c3.5,0,6.3,2.8,6.3,6.3v81h68.6c2.5,0,5,1.5,6,3.8c0.6,2.5,0.3,5.3-1.5,7
		L135.5,222.8z"/>
</g>
</svg>
